<?xml version="1.0" encoding="UTF-8"?>
<svg width="25px" height="32px" viewBox="0 0 25 32" version="1.1" xmlns="http://www.w3.org/2000/svg" xmlns:xlink="http://www.w3.org/1999/xlink">
    <!-- Generator: Sketch 53.1 (72631) - https://sketchapp.com -->
    <title>Untitled 2</title>
    <desc>Created with Sketch.</desc>
    <g id="Page-1" stroke="none" stroke-width="1" fill="none" fill-rule="evenodd">
        <g id="customer-service-01" fill-rule="nonzero">
            <path d="M11.5,4.6 C11.5,2.1 13.6,0 16.1,0 C18.6,0 20.7,2.1 20.7,4.6 C20.7,7.1 18.6,9.2 16.1,9.2 C13.5,9.1 11.5,7.1 11.5,4.6 Z" id="Path" fill="#293E40"></path>
            <path d="M21.1,24.8 C19.6,25.7 17.8,26.2 15.9,26.2 C10.1,26.2 5.4,21.5 5.4,15.7 C5.4,13.8 5.9,12 6.8,10.5 L3,6.7 C1.2,9.2 0.2,12.3 0.2,15.7 C0.2,24.4 7.2,31.4 15.9,31.4 C19.2,31.4 22.3,30.4 24.9,28.6 L21.1,24.8 Z" id="Path" fill="#81B5A1"></path>
        </g>
    </g>
</svg>