<?xml version="1.0" encoding="UTF-8"?>
<svg width="33px" height="32px" viewBox="0 0 33 32" version="1.1" xmlns="http://www.w3.org/2000/svg" xmlns:xlink="http://www.w3.org/1999/xlink">
    <!-- Generator: Sketch 53.1 (72631) - https://sketchapp.com -->
    <title>Untitled 3</title>
    <desc>Created with Sketch.</desc>
    <g id="Page-1" stroke="none" stroke-width="1" fill="none" fill-rule="evenodd">
        <g id="hr-01" fill-rule="nonzero">
            <path d="M32.2,13.1 L32.2,18.3 C28.6,18.3 25.3,19.8 22.9,22.1 C20.5,24.5 19.1,27.8 19.1,31.4 L13.9,31.4 C13.9,26.3 16,21.7 19.3,18.4 C22.6,15.1 27.2,13.1 32.2,13.1 Z" id="Path" fill="#293E40"></path>
            <circle id="Oval" fill="#293E40" cx="16.5" cy="4.6" r="4.6"></circle>
            <path d="M19.1,31.4 L13.9,31.4 C13.9,27.8 12.4,24.5 10.1,22.1 C7.7,19.7 4.4,18.3 0.8,18.3 L0.8,13.1 C5.9,13.1 10.5,15.2 13.8,18.5 C17.1,21.8 19.1,26.4 19.1,31.4 Z" id="Path" fill="#81B5A1"></path>
        </g>
    </g>
</svg>