<?xml version="1.0" encoding="UTF-8"?>
<svg width="33px" height="32px" viewBox="0 0 33 32" version="1.1" xmlns="http://www.w3.org/2000/svg" xmlns:xlink="http://www.w3.org/1999/xlink">
    <!-- Generator: Sketch 53.1 (72631) - https://sketchapp.com -->
    <title>Untitled 4</title>
    <desc>Created with Sketch.</desc>
    <g id="Page-1" stroke="none" stroke-width="1" fill="none" fill-rule="evenodd">
        <g id="it-01" fill-rule="nonzero">
            <path d="M8.6,23.5 C10.4,25.3 10.4,28.2 8.6,30 C6.8,31.8 3.9,31.8 2.1,30 C0.3,28.2 0.3,25.3 2.1,23.5 C3.9,21.7 6.8,21.7 8.6,23.5 Z" id="Path" fill="#81B5A1"></path>
            <path d="M30.9,23.6 C32.7,25.4 32.7,28.3 30.9,30.1 C29.1,31.9 26.2,31.9 24.4,30.1 C22.6,28.3 22.6,25.4 24.4,23.6 C26.2,21.8 29.1,21.8 30.9,23.6 Z" id="Path" fill="#2A3E40"></path>
            <path d="M19.7,23.6 C21.5,25.4 21.5,28.3 19.7,30.1 C17.9,31.9 15,31.9 13.2,30.1 C11.4,28.3 11.4,25.4 13.2,23.6 C15,21.8 18,21.8 19.7,23.6 Z" id="Path" fill="#81B5A0"></path>
            <path d="M13.9,0 L19.1,0 C19.1,3.6 20.6,6.9 22.9,9.3 C25.3,11.7 28.6,13.1 32.2,13.1 L32.2,18.3 C27.1,18.3 22.5,16.2 19.2,12.9 C15.9,9.6 13.9,5 13.9,0 Z" id="Path" fill="#293E40"></path>
            <path d="M0.8,18.3 L0.8,13.1 C4.4,13.1 7.7,11.6 10.1,9.3 C12.5,6.9 13.9,3.6 13.9,0 L19.1,0 C19.1,5.1 17,9.7 13.7,13 C10.4,16.3 5.8,18.3 0.8,18.3 Z" id="Path" fill="#81B5A1"></path>
        </g>
    </g>
</svg>