<?xml version="1.0" encoding="UTF-8"?>
<svg width="133px" height="104px" viewBox="0 0 133 104" version="1.1" xmlns="http://www.w3.org/2000/svg" xmlns:xlink="http://www.w3.org/1999/xlink">
    <!-- Generator: Sketch 53.1 (72631) - https://sketchapp.com -->
    <title>itil</title>
    <desc>Created with Sketch.</desc>
    <defs>
        <path d="M37.77,11.624 C37.77,11.624 46.41,3.944 59.61,3.944 C59.61,3.944 26.73,-9.496 0.811,14.984 C0.811,14.984 22.89,5.144 37.77,11.624" id="path-1"></path>
        <radialGradient cx="28.9987925%" cy="62.000782%" fx="28.9987925%" fy="62.000782%" r="290.598239%" gradientTransform="translate(0.289988,0.620008),scale(0.250367,1.000000),translate(-0.289988,-0.620008)" id="radialGradient-3">
            <stop stop-color="#B79389" offset="0%"></stop>
            <stop stop-color="#99544F" offset="100%"></stop>
        </radialGradient>
        <path d="M49.21,0.664 C49.21,0.664 20.17,13.143 1.451,45.783 C1.451,45.783 -11.509,-0.536 49.21,0.664" id="path-4"></path>
        <path d="M38.25,0.623 C38.25,0.623 9.211,46.702 41.37,93.982 C41.37,93.982 -48.467,48 38.25,0.623 Z" id="path-6"></path>
        <path d="M3.284,0 C3.284,0 13.533,51.75 83.033,74 C83.033,74 -17.717,130.5 3.284,0" id="path-8"></path>
        <path d="M0.784,0.25 C0.784,0.25 27.784,17.75 83.784,16.5 C83.784,16.5 81.534,32.25 69.784,45.5 C69.784,45.5 37.034,44 0.784,0.25" id="path-10"></path>
        <radialGradient cx="82%" cy="60%" fx="82%" fy="60%" r="164%" gradientTransform="translate(0.820000,0.600000),scale(0.545181,1.000000),translate(-0.820000,-0.600000)" id="radialGradient-12">
            <stop stop-color="#B79389" offset="0%"></stop>
            <stop stop-color="#99544F" offset="100%"></stop>
        </radialGradient>
        <path d="M0.284,15.75 C0.284,15.75 44.284,17.5 71.534,0 C71.534,0 74.534,11.75 72.534,23.25 C72.534,23.25 31.284,27.25 0.284,15.75" id="path-13"></path>
        <radialGradient cx="88%" cy="50.0015857%" fx="88%" fy="50.0015857%" r="276.287812%" gradientTransform="translate(0.880000,0.500016),scale(0.327996,1.000000),translate(-0.880000,-0.500016)" id="radialGradient-15">
            <stop stop-color="#B79389" offset="0%"></stop>
            <stop stop-color="#99544F" offset="100%"></stop>
        </radialGradient>
        <path d="M37.284,0 C37.284,0 26.784,34 0.284,45.5 C0.284,45.5 30.534,44.75 51.284,23.75 C51.284,23.75 47.534,10.75 37.284,0" id="path-16"></path>
        <radialGradient cx="79%" cy="35%" fx="79%" fy="35%" r="110.905495%" gradientTransform="translate(0.790000,0.350000),scale(0.892157,1.000000),translate(-0.790000,-0.350000)" id="radialGradient-18">
            <stop stop-color="#B79389" offset="0%"></stop>
            <stop stop-color="#99544F" offset="100%"></stop>
        </radialGradient>
        <path d="M28.282,0.67 C11.382,3.29 -0.857,15.093 0.943,27.032 C2.744,38.97 17.904,46.524 34.804,43.903 C51.703,41.283 63.943,29.48 62.142,17.542 C60.341,5.603 45.181,-1.951 28.282,0.67" id="path-19"></path>
        <radialGradient cx="36.999957%" cy="39.9993052%" fx="36.999957%" fy="39.9993052%" r="106.284035%" gradientTransform="translate(0.370000,0.399993),scale(0.719279,1.000000),translate(-0.370000,-0.399993)" id="radialGradient-21">
            <stop stop-color="#B79389" offset="0%"></stop>
            <stop stop-color="#99544F" offset="100%"></stop>
        </radialGradient>
    </defs>
    <g id="itil" stroke="none" stroke-width="1" fill="none" fill-rule="evenodd">
        <g id="Group-4">
            <mask id="mask-2" fill="white">
                <use xlink:href="#path-1"></use>
            </mask>
            <g id="Clip-3"></g>
            <path d="M37.77,11.624 C37.77,11.624 46.41,3.944 59.61,3.944 C59.61,3.944 26.73,-9.496 0.811,14.984 C0.811,14.984 22.89,5.144 37.77,11.624" id="Fill-2" fill="url(#radialGradient-3)" mask="url(#mask-2)"></path>
        </g>
        <g id="Group-7" transform="translate(-16.000000, 16.000000)">
            <mask id="mask-5" fill="white">
                <use xlink:href="#path-4"></use>
            </mask>
            <g id="Clip-6"></g>
            <path d="M49.21,0.664 C49.21,0.664 20.17,13.143 1.451,45.783 C1.451,45.783 -11.509,-0.536 49.21,0.664" id="Fill-5" mask="url(#mask-5)"></path>
        </g>
        <g id="Group-10" transform="translate(-12.000000, 29.000000)">
            <mask id="mask-7" fill="white">
                <use xlink:href="#path-6"></use>
            </mask>
            <g id="Clip-9"></g>
            <polygon id="Fill-8" mask="url(#mask-7)" points="-42.94 218 333.02 218 333.02 -157.96 -42.94 -157.96"></polygon>
        </g>
        <g id="Group-13" transform="translate(23.000000, 40.000000)">
            <mask id="mask-9" fill="white">
                <use xlink:href="#path-8"></use>
            </mask>
            <g id="Clip-12"></g>
            <path d="M3.284,0 C3.284,0 13.533,51.75 83.033,74 C83.033,74 -17.717,130.5 3.284,0" id="Fill-11" mask="url(#mask-9)"></path>
        </g>
        <g id="Group-16" transform="translate(43.000000, 58.000000)">
            <mask id="mask-11" fill="white">
                <use xlink:href="#path-10"></use>
            </mask>
            <g id="Clip-15"></g>
            <path d="M0.784,0.25 C0.784,0.25 27.784,17.75 83.784,16.5 C83.784,16.5 81.534,32.25 69.784,45.5 C69.784,45.5 37.034,44 0.784,0.25" id="Fill-14" fill="url(#radialGradient-12)" mask="url(#mask-11)"></path>
        </g>
        <g id="Group-19" transform="translate(59.000000, 42.000000)">
            <mask id="mask-14" fill="white">
                <use xlink:href="#path-13"></use>
            </mask>
            <g id="Clip-18"></g>
            <path d="M0.284,15.75 C0.284,15.75 44.284,17.5 71.534,0 C71.534,0 74.534,11.75 72.534,23.25 C72.534,23.25 31.284,27.25 0.284,15.75" id="Fill-17" fill="url(#radialGradient-15)" mask="url(#mask-14)"></path>
        </g>
        <g id="Group-22" transform="translate(76.000000, 7.000000)">
            <mask id="mask-17" fill="white">
                <use xlink:href="#path-16"></use>
            </mask>
            <g id="Clip-21"></g>
            <path d="M37.284,0 C37.284,0 26.784,34 0.284,45.5 C0.284,45.5 30.534,44.75 51.284,23.75 C51.284,23.75 47.534,10.75 37.284,0" id="Fill-20" fill="url(#radialGradient-18)" mask="url(#mask-17)"></path>
        </g>
        <g id="Group-25" transform="translate(30.000000, 8.000000)">
            <mask id="mask-20" fill="white">
                <use xlink:href="#path-19"></use>
            </mask>
            <g id="Clip-24"></g>
            <path d="M28.282,0.67 C11.382,3.29 -0.857,15.093 0.943,27.032 C2.744,38.97 17.904,46.524 34.804,43.903 C51.703,41.283 63.943,29.48 62.142,17.542 C60.341,5.603 45.181,-1.951 28.282,0.67" id="Fill-23" fill="url(#radialGradient-21)" mask="url(#mask-20)"></path>
        </g>
    </g>
</svg>