<?xml version="1.0" encoding="UTF-8"?>
<svg width="117px" height="32px" viewBox="0 0 117 32" version="1.1" xmlns="http://www.w3.org/2000/svg" xmlns:xlink="http://www.w3.org/1999/xlink">
    <!-- Generator: Sketch 53.1 (72631) - https://sketchapp.com -->
    <title>Untitled</title>
    <desc>Created with Sketch.</desc>
    <g id="Page-1" stroke="none" stroke-width="1" fill="none" fill-rule="evenodd">
        <g id="servicenow-mini-logo" fill-rule="nonzero">
            <path d="M0,31.35 L0,0.63 L7.89,0.63 L7.89,3.1 C10.3169411,1.08471433 13.3754384,-0.0126631531 16.53,1.93622245e-15 C20.6221147,-0.0114374487 24.5070078,1.79906937 27.13,4.94 C29.13,7.35 30.29,10.45 30.29,15.71 L30.29,31.35 L22.09,31.35 L22.09,15.07 C22.09,12.07 21.39,10.45 20.26,9.31 C19.0093916,8.15367189 17.352172,7.53895485 15.65,7.6 C12.7233645,7.68886511 9.99013494,9.08299561 8.2,11.4 L8.2,31.4 L0,31.35 Z" id="Path" fill="#293E40"></path>
            <path d="M51.41,0 C44.0660915,0.0162600771 37.4684943,4.49237099 34.7391326,11.3102769 C32.0097708,18.1281829 33.6960351,25.9205106 39,31 C40.2660081,32.208709 42.2253235,32.3107124 43.61,31.24 C48.1563349,27.868028 54.3736651,27.868028 58.92,31.24 C60.3187142,32.3472489 62.3218894,32.2445219 63.6,31 C68.8763395,25.948433 70.5765932,18.2090309 67.9034553,11.411059 C65.2303173,4.61308721 58.7139118,0.104687567 51.41,0 M51.31,26.93 C48.910507,27.0078849 46.5850519,26.0930528 44.8817925,24.4011485 C43.1785331,22.7092442 42.2481668,20.3899603 42.31,17.99 C42.2007483,14.7229342 43.8813578,11.6561803 46.6939139,9.99029229 C49.50647,8.32440428 53.00353,8.32440428 55.8160861,9.99029229 C58.6286422,11.6561803 60.3092517,14.7229342 60.2,17.99 C60.2639926,20.380079 59.342667,22.6913736 57.6520203,24.3820203 C55.9613736,26.072667 53.650079,26.9939926 51.26,26.93" id="Shape" fill="#81B5A1"></path>
            <polygon id="Path" fill="#293E40" points="85.43 31.35 79.32 31.35 67.13 0.63 75.33 0.63 82 18.19 88.55 0.63 95.4 0.63 101.89 18.19 108.63 0.63 116.82 0.63 104.64 31.35 98.53 31.35 91.98 13.86"></polygon>
            <polygon id="Path" fill="#293E40" points="112.32 27.45 112.32 28.12 111.29 28.12 111.29 31.35 110.54 31.35 110.54 28.12 109.5 28.12 109.5 27.45"></polygon>
            <polygon id="Path" fill="#293E40" points="114.87 29.79 116.29 27.45 116.82 27.45 116.82 31.35 116.07 31.35 116.07 29.18 115.13 30.71 114.61 30.71 113.67 29.18 113.67 31.35 112.92 31.35 112.92 27.45 113.45 27.45"></polygon>
        </g>
    </g>
</svg>