<?xml version="1.0" encoding="UTF-8"?>
<svg width="53px" height="29px" viewBox="0 0 53 29" version="1.1" xmlns="http://www.w3.org/2000/svg" xmlns:xlink="http://www.w3.org/1999/xlink">
    <!-- Generator: Sketch 53.1 (72631) - https://sketchapp.com -->
    <title>Untitled</title>
    <desc>Created with Sketch.</desc>
    <g id="Page-1" stroke="none" stroke-width="1" fill="none" fill-rule="evenodd">
        <g id="now-platform" fill-rule="nonzero">
            <g id="Group" fill="#293E40">
                <path d="M47.8,14.3 C47.7,18.7 44.6,22.4 40.5,23.3 C39.8,23.5 39.1,23.6 38.3,23.6 C33,23.6 28.8,19.3 28.8,14.1 L24.3,14.1 C24.3,21.9 30.6,28.2 38.4,28.2 C39.1,28.2 39.9,28.1 40.6,28 C47.2,27 52.3,21.3 52.4,14.4 L47.8,14.3 L47.8,14.3 Z" id="Path"></path>
                <circle id="Oval" cx="47.4" cy="7.1" r="4.1"></circle>
                <path d="M14.7,0.1 C14,0.1 13.2,0.2 12.5,0.3 C5.8,1.3 0.7,7.1 0.7,14.1 L0.7,14.2 L5.2,14.2 L5.2,14.1 C5.2,9.6 8.3,5.8 12.5,4.9 C13.2,4.7 13.9,4.6 14.7,4.6 C20,4.6 24.2,8.9 24.2,14.1 L28.7,14.1 C28.8,6.3 22.5,0.1 14.7,0.1 Z" id="Path"></path>
            </g>
            <path d="M38.3,0 C30.5,0 24.2,6.3 24.2,14.1 C24.2,19.4 19.9,23.6 14.7,23.6 C13.9,23.6 13.2,23.5 12.5,23.3 C8.3,22.3 5.3,18.6 5.2,14.2 L0.7,14.2 C0.8,21.1 5.9,26.9 12.5,27.9 C13.2,28 13.9,28.1 14.7,28.1 C22.5,28.1 28.8,21.8 28.8,14 C28.8,8.7 33.1,4.5 38.3,4.5 C39.1,4.5 39.8,4.6 40.5,4.8 L40.5,0.2 C39.8,0.1 39,0 38.3,0 Z" id="Path" fill="#81B5A1"></path>
        </g>
    </g>
</svg>